<svg xmlns="http://www.w3.org/2000/svg" width="17.723" height="17.006" viewBox="0 0 17.723 17.006">
  <path id="Icon_awesome-arrow-right" data-name="Icon awesome-arrow-right" d="M4.581,3.786l.745-.865a.726.726,0,0,1,1.137,0l6.521,7.566a1.039,1.039,0,0,1,0,1.32l-6.521,7.57a.726.726,0,0,1-1.137,0l-.745-.865a1.044,1.044,0,0,1,.013-1.336l4.042-4.471L-3.7,12.669a.875.875,0,0,1-.805-.935V10.488A.875.875,0,0,1-3.7,9.554l12.333.039L4.594,5.122A1.036,1.036,0,0,1,4.581,3.786Z" transform="translate(4.502 -2.647)" fill="#fff"/>
</svg>
