<svg xmlns="http://www.w3.org/2000/svg" width="12" height="12" viewBox="0 0 12 12">
  <g id="Groupe_64" data-name="Groupe 64" transform="translate(-169 -210)">
    <circle id="Ellipse_60" data-name="Ellipse 60" cx="6" cy="6" r="6" transform="translate(169 210)" fill="#32d220"/>
    <path id="Icon_awesome-check" data-name="Icon awesome-check" d="M2.091,9.077l-2-2a.308.308,0,0,1,0-.435l.435-.435a.308.308,0,0,1,.435,0L2.308,7.554,5.195,4.667a.308.308,0,0,1,.435,0l.435.435a.308.308,0,0,1,0,.435L2.526,9.077A.308.308,0,0,1,2.091,9.077Z" transform="translate(171.988 209.181)" fill="#fff"/>
  </g>
</svg>
