<svg xmlns="http://www.w3.org/2000/svg" width="34.083" height="30.29" viewBox="0 0 34.083 30.29">
  <path id="Icon_awesome-edit" data-name="Icon awesome-edit" d="M23.823,4.924l5.337,5.337a.579.579,0,0,1,0,.817L16.237,24l-5.491.609a1.151,1.151,0,0,1-1.272-1.272l.609-5.491L23.006,4.924A.579.579,0,0,1,23.823,4.924Zm9.586-1.355L30.521.682a2.314,2.314,0,0,0-3.266,0L25.16,2.776a.579.579,0,0,0,0,.817L30.5,8.93a.579.579,0,0,0,.817,0l2.095-2.095a2.314,2.314,0,0,0,0-3.266ZM22.722,20.487V26.51H3.787V7.575h13.6a.728.728,0,0,0,.5-.207L20.255,5a.71.71,0,0,0-.5-1.213H2.84A2.841,2.841,0,0,0,0,6.628V27.457A2.841,2.841,0,0,0,2.84,30.3H23.669a2.841,2.841,0,0,0,2.84-2.84V18.12a.711.711,0,0,0-1.213-.5l-2.367,2.367A.728.728,0,0,0,22.722,20.487Z" transform="translate(0 -0.007)" fill="#fff"/>
</svg>
