<svg id="Groupe_7" data-name="Groupe 7" xmlns="http://www.w3.org/2000/svg" width="291.097" height="313.73" viewBox="0 0 291.097 313.73">
  <path id="Rectangle_176" data-name="Rectangle 176" d="M151.984,13.9l93.081,202.04a15.592,15.592,0,0,1,1.37,5.349,16.8,16.8,0,0,1-.483,5.434,16.013,16.013,0,0,1-2.178,4.912,13.737,13.737,0,0,1-3.726,3.775L136.1,305.431a14.147,14.147,0,0,1-5.288,2.2,12.646,12.646,0,0,1-5.331-.127,12.317,12.317,0,0,1-4.761-2.331,13.323,13.323,0,0,1-3.564-4.4L7.579,86.548a17.094,17.094,0,0,1-1.824-6.31A16.476,16.476,0,0,1,6.4,74.016,15.578,15.578,0,0,1,9.292,68.61,14.907,14.907,0,0,1,14.2,64.735L133.4,6a12.049,12.049,0,0,1,5.272-1.246,13.128,13.128,0,0,1,5.248,1.083,15.035,15.035,0,0,1,4.631,3.137A16.75,16.75,0,0,1,151.984,13.9Z" transform="translate(0 0.001)" fill="#6b74b5"/>
  <path id="Rectangle_177" data-name="Rectangle 177" d="M164.361,43.093,142.544,256.711a16.911,16.911,0,0,1-1.474,5.4,15.4,15.4,0,0,1-2.964,4.315,12.738,12.738,0,0,1-4.045,2.8,10.469,10.469,0,0,1-4.715.854L13.81,263.7a12.114,12.114,0,0,1-5.216-1.494,12.849,12.849,0,0,1-4.028-3.52,14.557,14.557,0,0,1-2.431-5.035,16.332,16.332,0,0,1-.428-6.021L27.689,14.8a15.2,15.2,0,0,1,1.7-5.544,13.172,13.172,0,0,1,3.4-4.089,11.721,11.721,0,0,1,9.886-2.29L154.361,27.029a11.013,11.013,0,0,1,4.343,2.036,13.738,13.738,0,0,1,3.319,3.7,16.132,16.132,0,0,1,1.988,4.845A16.731,16.731,0,0,1,164.361,43.093Z" transform="translate(125.351 24.504)" fill="#9cb0ff"/>
</svg>
