<svg xmlns="http://www.w3.org/2000/svg" width="18.49" height="19.5" viewBox="0 0 18.49 19.5">
  <g id="Icon" transform="translate(-2.75 -2.25)">
    <path id="Tracé_21" data-name="Tracé 21" d="M11.995,8.75A3.25,3.25,0,1,0,15.245,12,3.251,3.251,0,0,0,11.995,8.75Zm0,1.5A1.75,1.75,0,1,1,10.245,12,1.751,1.751,0,0,1,11.995,10.25Z" fill="#fff" fill-rule="evenodd"/>
    <path id="Tracé_22" data-name="Tracé 22" d="M8.745,5.072a.75.75,0,0,1-1.125.649l-.495-.286a2.252,2.252,0,0,0-3.074.824c-.316.548-.683,1.184-1,1.732a2.252,2.252,0,0,0,.824,3.074l.495.285a.751.751,0,0,1,0,1.3l-.495.285a2.252,2.252,0,0,0-.824,3.074c.317.548.684,1.184,1,1.732a2.252,2.252,0,0,0,3.074.824l.495-.286a.75.75,0,0,1,1.125.649V19.5a2.25,2.25,0,0,0,2.25,2.25h2a2.25,2.25,0,0,0,2.25-2.25v-.572a.75.75,0,0,1,1.125-.649c.169.1.336.193.5.286a2.252,2.252,0,0,0,3.074-.824l1-1.732a2.25,2.25,0,0,0-.824-3.074l-.5-.285a.751.751,0,0,1,0-1.3l.5-.285a2.25,2.25,0,0,0,.824-3.074l-1-1.732a2.252,2.252,0,0,0-3.074-.824c-.159.093-.326.189-.5.286a.75.75,0,0,1-1.125-.649V4.5a2.25,2.25,0,0,0-2.25-2.25h-2A2.25,2.25,0,0,0,8.745,4.5v.572Zm1.5,0V4.5a.751.751,0,0,1,.75-.75h2a.749.749,0,0,1,.75.75v.572A2.25,2.25,0,0,0,17.12,7.02c.169-.1.336-.193.5-.286a.753.753,0,0,1,1.025.275l1,1.732a.75.75,0,0,1-.275,1.025l-.5.285a2.251,2.251,0,0,0,0,3.9l.5.285a.75.75,0,0,1,.275,1.025l-1,1.732a.753.753,0,0,1-1.025.275c-.159-.093-.326-.189-.5-.286a2.25,2.25,0,0,0-3.375,1.948V19.5a.749.749,0,0,1-.75.75h-2a.751.751,0,0,1-.75-.75v-.572A2.25,2.25,0,0,0,6.87,16.98l-.495.286a.753.753,0,0,1-1.025-.275c-.316-.548-.683-1.184-1-1.732a.753.753,0,0,1,.275-1.025l.495-.285a2.251,2.251,0,0,0,0-3.9l-.495-.285A.753.753,0,0,1,4.35,8.741c.317-.548.684-1.184,1-1.732a.753.753,0,0,1,1.025-.275l.495.286a2.25,2.25,0,0,0,3.375-1.948Z" fill="#fff" fill-rule="evenodd"/>
  </g>
</svg>
