<svg xmlns="http://www.w3.org/2000/svg" width="20.598" height="19.784" viewBox="0 0 20.598 19.784">
  <g id="Icon_feather-star" data-name="Icon feather-star" transform="translate(2 2)">
    <g id="Icon_feather-star-2" data-name="Icon feather-star" transform="translate(-3 -3)" fill="none" stroke-linecap="round" stroke-linejoin="round">
      <path d="M11.3,3l2.564,5.2,5.734.838-4.149,4.042.979,5.71-5.129-2.7-5.129,2.7.979-5.71L3,9.033,8.734,8.2Z" stroke="none"/>
      <path d="M 11.298828125 2.999996185302734 L 8.734488487243652 8.195066452026367 L 2.999998092651367 9.033246040344238 L 7.149417877197266 13.07477569580078 L 6.170148849487305 18.78437614440918 L 11.298828125 16.08725547790527 L 16.42750930786133 18.78437614440918 L 15.44823837280273 13.07477569580078 L 19.59765815734863 9.033246040344238 L 13.86316776275635 8.195066452026367 L 11.298828125 2.999996185302734 M 11.298828125 0.9999961853027344 C 12.06006813049316 0.9999961853027344 12.75529766082764 1.432136535644531 13.0922384262085 2.11474609375 L 15.19168758392334 6.367999076843262 L 19.88691711425781 7.054276466369629 C 20.64003753662109 7.164356231689453 21.2653980255127 7.692366600036621 21.50014877319336 8.416376113891602 C 21.73490905761719 9.140396118164062 21.53835868835449 9.934906005859375 20.99311828613281 10.46596622467041 L 17.59728622436523 13.77350330352783 L 18.39872741699219 18.44628524780273 C 18.52742767333984 19.1966552734375 18.21893882751465 19.95502662658691 17.60297775268555 20.40248680114746 C 16.98701858520508 20.84994697570801 16.17043685913086 20.90888595581055 15.49660873413086 20.55452537536621 L 11.298828125 18.34695625305176 L 7.101048469543457 20.55452537536621 C 6.427215576171875 20.90888595581055 5.610637664794922 20.84994506835938 4.994678497314453 20.40248680114746 C 4.378717422485352 19.95502662658691 4.070228576660156 19.1966552734375 4.198928833007812 18.44628524780273 L 5.000370025634766 13.77350330352783 L 1.604537963867188 10.46596622467041 C 1.059297561645508 9.934906005859375 0.8627471923828125 9.140396118164062 1.097507476806641 8.416376113891602 C 1.332258224487305 7.692366600036621 1.957618713378906 7.164356231689453 2.710737228393555 7.054276466369629 L 7.40596866607666 6.367999076843262 L 9.505417823791504 2.11474609375 C 9.842358589172363 1.432136535644531 10.53758811950684 0.9999961853027344 11.298828125 0.9999961853027344 Z" stroke="none" fill="rgba(255,255,255,1)"/>
    </g>
  </g>
</svg>
